<?xml version="1.0" encoding="utf-8"?>
<!-- Generator: Adobe Illustrator 19.2.1, SVG Export Plug-In . SVG Version: 6.00 Build 0)  -->
<svg version="1.1" id="Layer_1" xmlns="http://www.w3.org/2000/svg" xmlns:xlink="http://www.w3.org/1999/xlink" x="0px" y="0px"
	 viewBox="0 0 256 256" style="enable-background:new 0 0 256 256;" xml:space="preserve">
<style type="text/css">
	.st0{fill:#111111;}
	.st1{fill:#888888;}
	.st2{fill:#FAFAFA;}
	.st3{fill:#96C346;}
	.st4{fill:#FFFFFF;}
</style>
<rect x="0" class="st0" width="256" height="256"/>
<polygon class="st1" points="192,168.7 232,192 232,64 192,83.4 "/>
<polygon class="st1" points="64,168.7 24,192 24,64 64,83.4 "/>
<rect x="64" y="64" class="st2" width="128" height="128"/>
<g>
	<path class="st3" d="M105.7,104.2c0,0,3.7-2.4,9.3-4.6c5.7-2.2,9.7-3.8,9.7-3.8s1.7-8.1,7.7-12.6c6-4.5,15.1-5,20.8,0.3
		c5.7,5.3,5.8,10.5,7,16.8c1.3,6.3,9.3,4.8,11.4,11c2.7,7.7,1.4,21.7-4.2,34.8c-2.3,5.4-8.5,14-12.7,18.5
		c-6.4,6.7-12.1,8.5-20.1,7.6c-14.5-1.6-21.2-4.2-30.2-11.2c-10-7.8-12-12.8-12.6-15.8c-0.6-3,2.3-7.3-3.7-11
		c-8-4.8-13.4-14.7-7.5-24.2C88.3,97.9,105.7,104.2,105.7,104.2z"/>
	<path class="st4" d="M92,129.5c-3.9,0.5-9-3.5-9.8-10.5c-0.7-5.9,3.3-10.8,10.4-11.5c7-0.7,10.6,2.5,10.8,5.4
		c0.2,2.9-0.9,5-3.3,8.7C97.6,125.3,95.6,129.1,92,129.5z"/>
	<path class="st4" d="M131.9,97.3c-2-3.4-0.6-9.9,5.6-13.2c4.8-2.6,11.8-1.2,15.3,4.9c3.5,6.2,1.4,10.6-1.1,12
		c-2.5,1.4-4.9,1.2-9.3,0.4C138.1,100.8,133.8,100.5,131.9,97.3z"/>
	<path d="M98.1,147.3c12.3-1.3,20.6-9.9,32.4-12.8c14.2-3.4,24.7-10.4,36.5-18.6c-3.2,16.2-10.3,31.1-24.9,40.1
		C127.8,164.8,108.2,160.7,98.1,147.3z"/>
	<path d="M93.6,111.5c9.1,0.5,7,13.1-0.9,12.6C84.2,123.5,85,111,93.6,111.5z"/>
	<path d="M142.6,86.9c8.2,0,9.1,13.7,0,13.4C133.2,99.9,134.4,86.9,142.6,86.9z"/>
	<path d="M106.5,128c0.7-2.6-4.4-2.3-4.2,0C102.6,132.2,105.9,130.6,106.5,128z"/>
	<path d="M134.7,112.9c-3.8-0.3-2.7,4.7,0,4.1C136.4,116.7,138.5,113.2,134.7,112.9z"/>
</g>
</svg>
